<svg xmlns="http://www.w3.org/2000/svg" width="502.66666" height="194.66667"><path d="M1422.4 224.773c0-31.793-8.74-58.132-26.18-79.062-17.43-20.879-39.01-31.316-64.71-31.316-24.52 0-45 9.589-61.53 28.773-16.54 19.184-24.76 43.613-24.76 73.18 0 31.793 8.7 58.129 26.14 79.062 17.48 20.879 39.05 31.317 64.76 31.317 24.47 0 44.99-9.539 61.53-28.723 16.48-19.129 24.75-43.555 24.75-73.231zm-38.44-4.503c0 21.621-4.94 39.16-14.87 52.617-9.93 13.461-22.19 20.191-36.73 20.191-13.58 0-25.08-6.785-34.54-20.348-9.45-13.566-14.21-30.679-14.21-51.402 0-21.512 5-39.055 14.97-52.566 9.98-13.457 22.19-20.242 36.68-20.242 13.54 0 25.04 6.785 34.54 20.402 9.46 13.617 14.16 30.734 14.16 51.348zm151.76 119.968-4.99-27.605c-5.32 1.43-10.73 2.172-16.29 2.172-6.7 0-11.26-3.446-13.78-10.282-2.52-6.781-3.75-20.031-3.75-39.742 8.26 0 19.62.426 34.11 1.274l-1.14-30.895c-14.49.637-25.47.899-32.97.899 0-39 .66-77.684 2.09-116.102h-36.78c1.42 37.891 2.09 76.574 2.09 116.102-5.47 0-13.59-.262-24.33-.899l1.1 30.735c9.83-.743 17.58-1.114 23.23-1.114 0 52.09 15.68 78.11 47.04 78.11 9.4 0 17.53-.903 24.37-2.653zm103.16 0-4.99-27.605c-5.33 1.43-10.74 2.172-16.3 2.172-6.7 0-11.26-3.446-13.78-10.282-2.52-6.781-3.75-20.031-3.75-39.742 8.26 0 19.62.426 34.11 1.274l-1.13-30.895c-14.5.637-25.48.899-32.98.899 0-39 .66-77.684 2.09-116.102h-36.77c1.42 37.891 2.08 76.574 2.08 116.102-5.46 0-13.59-.262-24.32-.899l1.09 30.735c9.83-.743 17.58-1.114 23.23-1.114 0 52.09 15.68 78.11 47.04 78.11 9.41 0 17.53-.903 24.38-2.653zm55.54-220.281h-37.44c1.28 21.406 1.95 45.996 1.95 73.766 0 27.5-1.57 51.613-4.71 72.332l40.06 4.504c-1.19-20.086-1.81-45.735-1.81-76.836 0-26.602.67-51.188 1.95-73.766zm6.41 194.371c0-7.047-2.13-13.195-6.46-18.496-4.32-5.246-10.35-7.894-18.05-7.894-6.46 0-11.55 2.277-15.21 6.835-3.7 4.559-5.51 10.016-5.51 16.426 0 7.047 2.14 13.141 6.46 18.336 4.33 5.192 10.36 7.789 18.15 7.789 6.61 0 11.69-2.277 15.25-6.781 3.57-4.508 5.37-9.91 5.37-16.215zm130.43-161.781-2.38-29.621c-8.45-4.981-19.9-7.473-34.35-7.473-23.94 0-42.38 7.473-55.21 22.363-12.87 14.891-19.29 32.801-19.29 53.731 0 21.726 6.75 40.695 20.19 56.859 13.45 16.215 31.89 24.324 55.26 24.324 11.41 0 21.57-1.484 30.5-4.347l-4.75-31.688c-8.55 3.922-18.1 5.883-28.64 5.883-11.27 0-20.1-4.398-26.61-13.246-6.51-8.852-9.75-19.769-9.75-32.695 0-14.043 3.86-25.969 11.55-35.719 7.7-9.695 18.63-14.57 32.74-14.57 8.22 0 18.48 2.066 30.74 6.199zm142.54 56.965c0-5.246-.28-12.133-.8-20.614l-89.66-1.695c1.28-11.711 5.8-21.461 13.49-29.199 7.7-7.789 17.82-11.656 30.36-11.656 13.92 0 28.7 2.332 44.38 6.996l-2.76-30.102c-12.83-5.191-28.69-7.789-47.6-7.789-23.95 0-42.29 7.527-55.07 22.524-12.79 14.992-19.15 33.062-19.15 54.156 0 22.043 6.08 41.172 18.15 57.387 12.11 16.16 28.93 24.269 50.46 24.269 19.72 0 34.3-5.937 43.85-17.859 9.6-11.867 14.35-27.344 14.35-46.418zm-32.55 1.429c0 23.793-9.12 35.715-27.32 35.715-17.34 0-27.65-12.343-30.88-36.984zm333.22-90.984h-40.48c0 17.594-1 47.27-2.95 89.027-1.95 41.754-2.94 67.829-3.04 78.161h-2.09c-.95-6.204-3.42-17.704-7.41-34.446-3.99-16.797-11.45-41.492-22.48-74.136-10.97-32.641-16.48-52.192-16.48-58.606h-30.74c0 6.625-5.28 26.336-15.82 59.137-10.55 32.804-17.44 55.801-20.67 68.941-3.23 13.141-5.85 26.18-7.79 39.11h-2.1c-.09-12.93-1.23-40.645-3.42-83.196-2.18-42.551-3.28-70.531-3.28-83.992H2059c0 3.129 3.37 34.231 10.07 93.316 6.75 59.086 10.12 95.383 10.12 108.79h53.88c0-11.551 5.65-37.145 17.06-76.676 11.35-39.532 17.01-64.809 17.01-75.883h2.09c0 11.18 6.51 36.512 19.43 76.039 12.97 39.531 19.43 65.074 19.43 76.52h53.46c0-21.407 2.13-59.614 6.46-114.618 4.32-55.004 6.46-84.148 6.46-87.488zm145.77.16-32.83-1.273c-1.52 4.398-2.23 8.32-2.23 11.816h-1.81c-10.21-9.695-23.99-14.57-41.38-14.57-11.6 0-21.19 3.605-28.84 10.758-7.7 7.207-11.5 16.742-11.5 28.668 0 15.738 5.94 28.613 17.87 38.629 11.92 10.066 32.83 15.367 62.71 16.003.19 1.852.29 3.657.29 5.297 0 11.184-2.43 18.547-7.22 22.098-4.85 3.605-13.69 5.352-26.61 5.352-14.02 0-27.7-2.063-41.05-6.2l3.04 28.563c12.64 4.875 30.45 7.312 53.45 7.312 16.82 0 29.79-3.922 38.91-11.816 9.17-7.844 13.74-21.621 13.74-41.281 0-4.344-.19-12.293-.53-23.739-.28-11.496-.47-19.183-.47-22.996 0-21.41 1.47-38.949 4.46-52.621zm-37.15 32.274c-.57 13.988-.86 26.07-.86 36.191-31.64 0-47.46-8.957-47.46-26.867 0-12.293 6.98-18.492 20.9-18.492 10.93 0 20.05 3.07 27.42 9.168zm169.24.156-2.37-29.621c-8.46-4.981-19.91-7.473-34.35-7.473-23.95 0-42.39 7.473-55.22 22.363-12.87 14.891-19.29 32.801-19.29 53.731 0 21.726 6.75 40.695 20.2 56.859 13.44 16.215 31.88 24.324 55.25 24.324 11.41 0 21.58-1.484 30.51-4.347l-4.75-31.688c-8.55 3.922-18.1 5.883-28.65 5.883-11.27 0-20.1-4.398-26.61-13.246-6.51-8.852-9.74-19.769-9.74-32.695 0-14.043 3.85-25.969 11.55-35.719 7.69-9.695 18.62-14.57 32.73-14.57 8.22 0 18.48 2.066 30.74 6.199zm147.44-32.59h-37.06c2.04 26.18 3.09 51.664 3.09 76.359 0 18.442-2.09 30.524-6.27 36.247-4.19 5.777-11.03 8.636-20.62 8.636-10.12 0-20.05-3.761-29.8-11.34 0-43.98.48-80.597 1.43-109.902h-37.06c1.04 32.063 1.57 70.531 1.57 115.359 0 41.282-1.48 75.622-4.33 102.911l39.39 2.492c-1.38-33.332-2.09-62.317-2.09-86.961h1.81c12.25 12.558 26.27 18.812 42.05 18.812 14.91 0 26.65-3.761 35.16-11.34 8.45-7.574 12.73-20.878 12.73-39.902 0-1.957-.14-5.988-.38-12.027-.24-6.043-.33-10.071-.33-12.031 0-17.274.24-43.082.71-77.313zm70.41 0h-37.43c1.28 21.406 1.94 45.996 1.94 73.766 0 27.5-1.56 51.613-4.7 72.332l40.05 4.504c-1.18-20.086-1.8-45.735-1.8-76.836 0-26.602.66-51.188 1.94-73.766zm6.42 194.371c0-7.047-2.14-13.195-6.46-18.496-4.33-5.246-10.36-7.894-18.06-7.894-6.46 0-11.54 2.277-15.2 6.835-3.71 4.559-5.51 10.016-5.51 16.426 0 7.047 2.13 13.141 6.46 18.336 4.32 5.192 10.36 7.789 18.15 7.789 6.6 0 11.69-2.277 15.25-6.781 3.56-4.508 5.37-9.91 5.37-16.215zm150.9-194.371h-37.05c2.04 26.18 3.08 52.676 3.08 79.488 0 16.266-2.18 27.289-6.46 33.067-4.32 5.773-10.88 8.687-19.71 8.687-10.61 0-20.63-4.027-30.08-12.082.47-40.375.71-76.781.71-109.16h-37.44c1.66 32.379 2.51 57.867 2.51 76.359 0 24.747-2.27 48.118-6.84 70.055l35.64 4.344 2.37-16.481h2.24c12.68 12.243 27.32 18.336 43.81 18.336 14.3 0 25.75-3.761 34.35-11.289 8.55-7.468 12.87-21.297 12.87-41.488 0-3.02-.14-7.047-.37-12.027-.24-5.036-.34-10.18-.34-15.477 0-13.934.24-38.101.71-72.332zm151.86 89.555c0-5.246-.28-12.133-.81-20.614l-89.66-1.695c1.29-11.711 5.8-21.461 13.5-29.199 7.7-7.789 17.81-11.656 30.36-11.656 13.92 0 28.7 2.332 44.38 6.996l-2.76-30.102c-12.83-5.191-28.7-7.789-47.61-7.789-23.94 0-42.29 7.527-55.06 22.524-12.79 14.992-19.15 33.062-19.15 54.156 0 22.043 6.08 41.172 18.15 57.387 12.11 16.16 28.93 24.269 50.46 24.269 19.72 0 34.3-5.937 43.85-17.859 9.6-11.867 14.35-27.344 14.35-46.418zm-32.55 1.429c0 23.793-9.12 35.715-27.32 35.715-17.34 0-27.65-12.343-30.88-36.984zm152.24-48.589c0-31.055-20.58-46.582-61.77-46.582-15.06 0-28.17 1.804-39.39 5.406l4.7 30.629c11.6-4.664 23.14-6.996 34.69-6.996 11.12 0 18.86 1.011 23.14 3.078 4.32 2.066 6.51 5.562 6.51 10.437 0 7.524-7.79 14.731-23.43 21.567-13.63 5.988-23.57 11.871-29.79 17.695-8.5 8.059-12.78 17.969-12.78 29.625 0 13.777 4.61 24.852 13.78 33.223 9.17 8.429 22.57 12.613 40.1 12.613 16.4 0 29.32-1.641 38.68-4.824l-4.7-30.731c-10.5 4.559-21.81 6.832-33.98 6.832-14.87 0-22.28-4.238-22.28-12.769 0-4.344 1.57-7.789 4.75-10.438 3.13-2.648 9.6-5.988 19.34-10.015 13.44-5.512 23.23-11.125 29.36-16.957 8.74-8.266 13.07-18.868 13.07-31.793zm69.08-18.176c0-27.028-14.87-55.7463-44.57-86.1643l-12.35 11.8164c12.59 15.6328 18.91 32.5389 18.91 50.7659-7.03 4.769-10.6 12.453-10.6 23.105 0 7.473 2.38 13.989 7.13 19.551 4.71 5.617 11.26 8.426 19.63 8.426 6.84 0 12.21-2.809 16.05-8.426 3.86-5.562 5.8-11.922 5.8-19.074zm133.52-24.219h-39.39c1.19 32.063 1.8 67.352 1.8 105.715 0 37.785-.61 69.894-1.8 96.391h39.39c-1.19-26.071-1.81-58.184-1.81-96.391 0-38.996.62-74.238 1.81-105.715zm161.35 0h-37.05c2.04 26.18 3.08 52.676 3.08 79.488 0 16.266-2.18 27.289-6.46 33.067-4.32 5.773-10.88 8.687-19.72 8.687-10.59 0-20.62-4.027-30.07-12.082.47-40.375.71-76.781.71-109.16h-37.44c1.66 32.379 2.52 57.867 2.52 76.359 0 24.747-2.28 48.118-6.85 70.055l35.64 4.344 2.37-16.481h2.24c12.69 12.243 27.32 18.336 43.81 18.336 14.3 0 25.75-3.761 34.35-11.289 8.55-7.468 12.87-21.297 12.87-41.488 0-3.02-.14-7.047-.37-12.027-.24-5.036-.34-10.18-.34-15.477 0-13.934.24-38.101.71-72.332zm136.27 32.59-2.37-29.621c-8.46-4.981-19.91-7.473-34.35-7.473-23.95 0-42.39 7.473-55.21 22.363-12.88 14.891-19.29 32.801-19.29 53.731 0 21.726 6.74 40.695 20.19 56.859 13.44 16.215 31.88 24.324 55.26 24.324 11.4 0 21.57-1.484 30.5-4.347l-4.75-31.688c-8.55 3.922-18.1 5.883-28.65 5.883-11.26 0-20.1-4.398-26.61-13.246-6.51-8.852-9.74-19.769-9.74-32.695 0-14.043 3.85-25.969 11.55-35.719 7.7-9.695 18.62-14.57 32.74-14.57 8.22 0 18.48 2.066 30.73 6.199zm66-5.563c0-7.578-2.37-14.203-7.03-19.98-4.7-5.723-11.17-8.582-19.43-8.582-6.94 0-12.4 2.488-16.3 7.418-3.89 4.98-5.85 10.918-5.85 17.859 0 7.574 2.38 14.094 7.04 19.656 4.7 5.512 11.21 8.321 19.57 8.321 7.04 0 12.5-2.438 16.3-7.258 3.8-4.77 5.7-10.602 5.7-17.434" style="fill:#fff;fill-opacity:1;fill-rule:nonzero;stroke:none" transform="matrix(.1333333 0 0 -.1333333 0 194.66667)"/><path d="M195.008 1.69531c-12.227-3.40625-14.289.35938-20.356 3.39453-5.464 2.73047-6.086 10.46486-8.48 15.25786-2.731 5.4687-4.391 10.4687-6.781 15.2695-1.071 2.1406-3.891 2.1914-5.09 3.3906-2.68 2.6758-2.199 5.586-3.395 6.7813-5.992 5.9922-10.136 12.9922-16.957 15.2617-9.652 3.2148-4.418 5.8672-10.176 10.1758-1.351 1.0156-4.148-1.4063-5.085 0-2.973 4.4609-4.215 8.5898-3.391 11.875C165.418 282.52 307.801 1059.58 303.543 1073.51c-1.488 4.86 1.695 8.08 1.695 11.87 0 3.8-3.093 7.16-5.086 8.48-3.148 2.1-6.824 3.89-10.175 3.39-14.829-2.19-112.118-94.76-127.2-106.836-2.636-2.117-6.457-2.656-10.172-3.398-4.988-.996-11.671-3.594-15.261 0-4.946 4.945 1.898 15.064-1.696 18.664-4.937 4.94-12.734.57-16.96 3.39-2.817 1.88-.411 5.14 0 6.78 1.3 5.2 5.269 9.01 6.789 13.57 2.14 6.43 6.281 11.63-1.704 16.96-2.816 1.88-6.781-1.7-8.476-3.4-5.086-5.08-9.512-10.94-15.262-15.26-7.91-5.93-15.9569-11.92-23.7459-15.26-4.6758-2-9.7774-3.39-13.5664-3.39-2.3946 0-3.3907 3.39-3.3907 3.39 0 5.08 3.0821 10.47 0 11.87-17.6054 7.99-24.5234-.69-28.8281-3.39-10.2812-6.46-19.0586-9.46-23.74609 1.69-7.88281 18.76 8.12889 18.96 16.96099 28.83C143.852 1185.82 286.93 1309.45 418.863 1438.13c8.957 8.73 12.106 6.05 22.047 13.57 4.274 3.23 10.176 1.69 16.961 1.69 3.391 0 8.481 0 13.567-1.69 12.769-4.25 31.562-24.84 45.789-32.22 6.015-3.12 5.168 2.55 11.871-8.48 30.074-49.5 10.164-117.68 8.476-135.68-.156-1.68-93.879-469.523-103.449-524.031-1.781-10.156-3.371-20.473-1.695-32.226.242-1.676 3.89-1.196 5.09 0 5.992 5.992 11.031 11.144 15.261 16.96C579.973 910.813 684.828 1179.2 730.91 1249.88c4.141 6.35 6.891 14.3 13.57 16.96 11.125 4.46 25.434 1.7 39.004 1.7 3.391 0 7.5-.71 10.176-3.4 1.195-1.19 0-14.06 0-15.26 0-2.39-5.086-16.95 0-33.91 0 0 .996-3.39 3.391-3.39 5.359 0 10.183 3.39 16.961 3.39 1.687 0 2.691-1.7 5.086-1.7 3.789 0 7.047 3.3 11.871 1.7 1.601-.54 3.078-3.01 3.394-6.79 15.024-179.24-39.05-418.242-55.968-524.032-.532-3.347-.395-9.777 3.39-13.566 2.399-2.398 6.387-1.699 10.18-1.699 2.398 0 4.23 1.937 5.086 3.394 89.961 153.188 177.691 368.793 232.339 483.333 10.97 22.98 30.57 9.19 59.36 5.09 15.82-2.26 22.1-2.71 30.52-8.49 1.4-.95-1.2-3.89 0-5.08 23.95-23.95 22.46-42.7 11.87-78.01-2.61-8.75-5.93-16.85-6.78-27.14-.84-10.13-1.56-20.73 1.7-30.52.53-1.61 2.99-1.7 6.78-1.7 2.39 0 5.8 2.41 8.48 5.09 2.68 2.68 4.75 6.11 5.09 8.48 1.43 10.07 4.64 14.19 6.78 15.26 1.51.76 5.09.7 5.09-1.7v-88.179c0-119.195-25.53-554.332-37.31-634.27-.78-5.308-1.49-12.664-5.09-18.66-1.95-3.25-5.63-6.961-10.17-8.476-2.28-.758-1.7 3.39-1.7 3.39-1.69 0-2.19-2.89-3.39-1.695-2.68 2.68-4.67 6.402-5.09 10.176-1.31 11.797 2.87 24.156 0 33.922-5.78 19.656 1.25 30.582-11.87 27.129-19.82-5.215-13.66-20.7-20.35-47.485-.41-1.64-.94-.179-1.7-1.695-1.07-2.145-1.03-5.156-1.69-8.481-1.05-5.253-1.79-10.437-3.39-15.261-.54-1.606-4.02.449-5.1-1.696-.75-1.511 3.29-7.66 0-8.48-6.77-1.695-16.4-3.824-20.34 1.695-6.98 9.758.27 24.891-5.09 35.617-2.4 4.793-10.28 2.516-13.57 1.696-3.68-.918-5.09-5.09-6.78-8.481-1.7-3.39-3.39-8.484-5.09-13.566-1.689-5.09-1.958-10.707-5.087-16.961-.758-1.516-1.879-2.637-3.395-3.395-3.027-1.511-6.961-.754-8.476 0-2.145 1.075-3.114 3.418-3.395 5.09-1.418 8.528-.891 18.149-5.086 23.742-2.031 2.715-7.769 1.539-8.48 0-12.102-26.117-17.453-50.867-20.352-81.402-.574-6.086-3.684-12.867-8.476-15.266-4.797-2.394-10.176 1.7-15.262 1.7-1.696 0-3.391-1.7-5.086-3.395l-1.699 6.785c0 129.778 43.957 370.903 44.093 371.403 6.625 24.464 3.289 29.336 3.391 62.75.012 3.793-2.707 8.214-5.086 8.48-13.484 1.496-12.32-9.109-20.351-23.742-103.747-188.918-169.204-339.555-259.473-473.16-2.688-3.973-3.399-11.871-8.485-13.567-12.863-4.293-25.316-1.695-37.308-1.695-1.695 0 0 3.395 0 3.395-1.695 1.691-3.731 2.375-5.086 3.386-5.754 4.317-9.652 10.571-13.566 15.266-4.61 5.527-8.485 10.176-11.875 13.566-5.086 5.09-9.211 9.578-11.872 13.567-.941 1.41.754 3.574 0 5.086-1.07 2.144-4.808.023-5.085 1.699-3.356 20.141-.329 39.258-3.391 57.66-.625 3.738-6.965 2.457-8.481 1.699-8.843-4.426-14.836-13.402-23.746-16.961-9.441-3.781-8.472.996-8.472 3.391 0 20.422 4.668 37.812 8.472 49.18 31.012 92.511 58.063 281.457 55.965 339.183-.246 6.985-.898 15.305-5.082 18.653-5.465 4.367-13.672 4.39-18.656 3.394-3.719-.742-5.09-3.394-6.785-6.785-5.157-10.324-11.375-19.477-16.957-28.828C485.891 498.246 282.836 153.551 206.875 1.69531ZM1518.33 498.605l-76.69-2.996c-3.47 13.235-5.26 23.723-5.26 31.461h-5.26c-28.66-26.218-62.14-39.453-100.3-39.453-36.16 0-63.26 10.613-81.51 31.59-18.35 21.098-27.42 63.297-27.42 126.473 0 7.492.11 18.105.45 31.84.33 13.609.56 25.593.56 35.832 0 26.964-2.13 70.168-6.27 129.468l91.46 3.625c-3.47-46.82-5.15-91.144-5.15-133.093 0-59.805 3.92-100.008 11.87-120.735 8.06-20.722 23.73-31.086 47.13-31.086 25.52 0 47.69 6.864 66.27 20.473 0 128.223-1.34 215.371-3.92 261.191l88.55 3.25c-2.24-46.074-3.36-105.879-3.36-179.164 0-54.437 3.03-110.621 8.85-168.676zm167.92-.375h-89.56c3.36 83.649 4.93 174.293 4.93 271.805 0 95.008-3.36 175.914-10.08 242.465l94.71 5.86c-3.25-69.04-4.92-151.817-4.92-248.325 0-98.008 1.67-188.652 4.92-271.805zm269.69 68.418-5.6-65.171c-15.34-7.243-34.59-10.989-57.77-10.989-35.37 0-62.13 10.739-80.04 32.215-17.91 21.473-26.87 62.797-26.87 123.977 0 36.832.23 78.531.68 125.101-11.2 0-26.31-.625-45.23-2.121l2.24 72.039c16.79-1.5 32.46-2.25 46.9-2.25.23 12.989 1.13 46.946 2.58 102.129l77.8 10.613c-3.36-48.566-4.92-86.144-4.92-112.742 18.36 0 45.79 1 82.28 2.996l-2.57-72.785c-33.26 1.496-60.23 2.121-81.06 2.121-.45-32.336-.67-66.422-.67-102.004 0-43.449 3.92-72.539 11.87-87.273 7.83-14.731 21.72-22.098 41.64-22.098 11.98 0 24.85 2.121 38.74 6.242zm142.28-68.418h-88.21c3.02 50.438 4.59 108.372 4.59 173.797 0 64.793-3.69 121.602-11.08 170.418l94.37 10.614c-2.8-47.317-4.25-107.746-4.25-181.032 0-62.679 1.56-120.609 4.58-173.797zm15.12 457.958c0-16.606-5.04-31.086-15.23-43.575-10.18-12.359-24.4-18.601-42.54-18.601-15.22 0-27.2 5.367-35.82 16.105-8.73 10.735-12.99 23.598-12.99 38.703 0 16.606 5.04 30.965 15.22 43.2 10.2 12.23 24.41 18.36 42.77 18.36 15.56 0 27.54-5.38 35.94-15.989 8.39-10.61 12.65-23.348 12.65-38.203zm253.56-389.54-5.6-65.171c-15.34-7.243-34.59-10.989-57.76-10.989-35.38 0-62.13 10.739-80.04 32.215-17.92 21.473-26.87 62.797-26.87 123.977 0 36.832.22 78.531.67 125.101-11.19 0-26.31-.625-45.23-2.121l2.24 72.039c16.79-1.5 32.47-2.25 46.9-2.25.23 12.989 1.13 46.946 2.58 102.129l77.81 10.613c-3.36-48.566-4.93-86.144-4.93-112.742 18.36 0 45.79 1 82.28 2.996l-2.57-72.785c-33.25 1.496-60.23 2.121-81.05 2.121-.45-32.336-.67-66.422-.67-102.004 0-43.449 3.91-72.539 11.86-87.273 7.84-14.731 21.72-22.098 41.65-22.098 11.98 0 24.85 2.121 38.73 6.242zm334.17 142.582c0-12.359-.68-28.589-1.9-48.566l-211.25-3.996c3.02-27.594 13.66-50.566 31.79-68.793 18.14-18.352 41.98-27.469 71.54-27.469 32.8 0 67.61 5.492 104.56 16.481l-6.5-70.914c-30.22-12.239-67.61-18.356-112.17-18.356-56.42 0-99.64 17.731-129.75 53.063s-45.11 77.906-45.11 127.597c0 51.942 14.33 97.012 42.76 135.215 28.55 38.082 68.18 57.184 118.89 57.184 46.46 0 80.83-13.981 103.33-42.078 22.62-27.965 33.81-64.422 33.81-109.368zm-76.69 3.372c0 56.054-21.49 84.152-64.37 84.152-40.86 0-65.15-29.094-72.76-87.149zm383.99-137.586-5.6-69.793c-19.93-11.739-46.91-17.606-80.94-17.606-56.42 0-99.86 17.606-130.08 52.688-30.34 35.086-45.45 77.285-45.45 126.601 0 51.188 15.89 95.883 47.58 133.965 31.67 38.207 75.11 57.309 130.19 57.309 26.87 0 50.82-3.5 71.87-10.239l-11.19-74.664c-20.15 9.239-42.66 13.86-67.51 13.86-26.53 0-47.35-10.364-62.69-31.211-15.34-20.852-22.95-46.571-22.95-77.035 0-33.086 9.07-61.176 27.2-84.149 18.14-22.847 43.89-34.336 77.13-34.336 19.37 0 43.56 4.871 72.44 14.61zm347.38-76.786h-87.32c4.81 61.676 7.27 121.731 7.27 179.911 0 43.453-4.92 71.918-14.77 85.402-9.86 13.609-25.98 20.348-48.59 20.348-23.84 0-47.24-8.864-70.19-26.719 0-103.625 1.12-189.899 3.35-258.942h-87.32c2.46 75.536 3.7 166.18 3.7 271.805 0 97.258-3.47 178.16-10.18 242.465l92.8 5.86c-3.25-78.528-4.93-146.821-4.93-204.88h4.25c28.89 29.59 61.91 44.325 99.08 44.325 35.15 0 62.8-8.867 82.84-26.719 19.93-17.852 30.01-49.191 30.01-94.016 0-4.617-.34-14.105-.9-28.34-.56-14.23-.78-23.722-.78-28.339 0-40.703.56-101.508 1.68-182.161" style="fill:#fff;fill-opacity:1;fill-rule:evenodd;stroke:none" transform="matrix(.1333333 0 0 -.1333333 0 194.66667)"/></svg>
